<?xml version="1.0" encoding="UTF-8" standalone="no"?>
<!-- Created with Inkscape (http://www.inkscape.org/) -->

<svg
   version="1.1"
   id="svg1"
   width="4533.3335"
   height="2666.6667"
   viewBox="0 0 4533.3335 2666.6667"
   sodipodi:docname="PalmeraModificada.svg"
   inkscape:version="1.3 (0e150ed, 2023-07-21)"
   xmlns:inkscape="http://www.inkscape.org/namespaces/inkscape"
   xmlns:sodipodi="http://sodipodi.sourceforge.net/DTD/sodipodi-0.dtd"
   xmlns="http://www.w3.org/2000/svg"
   xmlns:svg="http://www.w3.org/2000/svg">
  <defs
     id="defs1" />
  <sodipodi:namedview
     id="namedview1"
     pagecolor="#ffffff"
     bordercolor="#000000"
     borderopacity="0.25"
     inkscape:showpageshadow="2"
     inkscape:pageopacity="0.0"
     inkscape:pagecheckerboard="0"
     inkscape:deskcolor="#d1d1d1"
     showgrid="false"
     inkscape:zoom="0.35774998"
     inkscape:cx="2191.4746"
     inkscape:cy="944.7939"
     inkscape:window-width="2240"
     inkscape:window-height="1125"
     inkscape:window-x="0"
     inkscape:window-y="25"
     inkscape:window-maximized="0"
     inkscape:current-layer="group-R5">
    <inkscape:page
       x="0"
       y="0"
       inkscape:label="1"
       id="page1"
       width="4533.3335"
       height="2666.6667"
       margin="0"
       bleed="0" />
  </sodipodi:namedview>
  <g
     id="g1"
     inkscape:groupmode="layer"
     inkscape:label="1">
    <g
       id="group-R5">
      <path
         id="path237"
         d="m 2266.8018,1509.2597 c 3.7074,-49.086 3.9208,-98.3576 0.3154,-147.4434 -3.6678,-50.2295 -11.1924,-100.3047 -22.927,-149.6071 -11.3683,-47.726 -26.8147,-94.741 -46.8218,-140.3031 -20.2941,-46.1805 -44.8987,-90.96985 -74.6053,-133.16276 -29.5638,-41.97673 -64.0572,-81.51116 -103.029,-117.21289 -4.8462,-4.45117 -9.771,-8.80956 -14.722,-13.13719 -6.7112,-5.811 -19.0132,-6.24371 -25.6091,0 -6.6344,6.275 -7.1696,15.98092 0,22.19405 19.6843,17.09345 38.2646,35.08342 55.7041,53.90789 2.0307,2.22559 4.0598,4.45117 6.0981,6.67676 0.4988,0.55627 0.9989,1.14364 1.5315,1.69991 1.5009,1.66916 -2.069,-2.34914 -0.6063,-0.64906 1.142,1.26737 2.2839,2.53474 3.3925,3.80194 4.1987,4.82203 8.3444,9.67516 12.4068,14.58998 8.0945,9.82966 15.9403,19.81344 23.475,29.95242 14.827,20.02997 28.484,40.70918 41.0385,61.85205 6.3845,10.7877 12.442,21.6682 18.2553,32.6724 2.8173,5.3475 5.5662,10.726 8.24,16.1352 0.6784,1.3291 1.3183,2.6274 1.9584,3.9567 1.0747,2.1329 -1.7435,-3.6477 -0.1092,-0.3092 0.3196,0.6491 0.6343,1.3292 0.9289,1.9783 1.3544,2.8128 2.6718,5.6256 3.9932,8.4387 20.8238,44.8203 37.1222,91.1862 49.3574,138.3247 6.2046,23.8321 11.3359,47.8496 15.5123,72.0217 0.4984,2.8438 0.9572,5.7185 1.4235,8.5933 0.1924,1.4526 0.4626,2.8746 0.7149,4.3273 0.056,0.5873 0.4302,2.9983 0.056,0.5873 -0.3549,-2.5656 0.083,0.6182 0.1391,1.1746 0.9331,6.0894 1.7744,12.2097 2.6056,18.3608 1.5729,12.2405 2.9263,24.543 4.0649,36.8456 4.3874,48.5295 5.0297,97.3372 2.2119,145.9594 -0.3581,5.9039 -0.7454,11.8389 -1.2129,17.7737 -0.605,8.1912 8.7706,16.0425 18.115,15.6717 10.3447,-0.4018 17.4435,-6.893 18.0832,-15.6717"
         style="fill:#566f3e;fill-opacity:1;fill-rule:nonzero;stroke:none;stroke-width:0.332003" />
      <path
         id="path238"
         d="m 2491.1496,1571.7916 c 15.2981,-50.446 30.6322,-100.8609 45.9628,-151.2762 15.268,-50.137 30.4924,-100.2738 45.722,-150.4108 7.3092,-23.9556 14.6578,-47.9113 23.1085,-71.5889 4.1713,-11.7149 8.6311,-23.3684 13.4459,-34.898 2.4572,-5.8728 4.9926,-11.6842 7.667,-17.4954 1.2813,-2.782 2.5314,-5.6255 3.9589,-8.3459 -1.3213,2.5038 -0.056,0.093 0.4911,-1.0201 0.7965,-1.5763 1.5711,-3.1528 2.3962,-4.7292 21.4354,-41.8838 49.6713,-80.8929 81.025,-117.6766 3.9587,-4.6675 7.9862,-9.3041 12.0508,-13.9098 0.6092,-0.67999 3.4599,-4.14185 0.9663,-1.08177 0.8186,-0.98915 1.7075,-1.88568 2.5661,-2.84373 2.1398,-2.38024 4.2799,-4.72939 6.4185,-7.07854 8.3119,-9.08762 16.7983,-18.0826 25.3899,-27.01589 17.0469,-17.68083 34.4887,-35.08343 52.0319,-52.39341 4.2885,-4.17296 8.5595,-8.37668 12.8015,-12.58057 6.2752,-6.15127 7.5248,-16.22803 0,-22.19387 -6.8591,-5.44017 -18.8989,-6.58397 -25.6024,0 -35.9833,35.42351 -71.7868,70.97074 -104.9867,108.40332 -32.3149,36.44356 -61.9448,74.89646 -85.1985,116.25486 -25.4317,45.253 -42.2945,93.3808 -57.3091,141.8487 -15.5126,50.1678 -30.5622,100.4592 -45.8619,150.658 -15.369,50.6623 -30.7711,101.2938 -46.1774,151.9563 -1.9328,6.3368 -3.8564,12.7043 -5.8163,19.0718 -2.3911,7.9132 3.0675,17.4026 12.6582,19.2881 9.4895,1.8857 19.6853,-2.4727 22.2917,-10.9424"
         style="fill:#566f3e;fill-opacity:1;fill-rule:nonzero;stroke:none;stroke-width:0.332003" />
      <path
         id="path239"
         d="m 2539.4696,1537.0483 c 2.3175,-6.0586 4.8134,-12.0862 7.5223,-18.0518 0.6438,-1.3291 1.2501,-2.6892 1.894,-4.0492 0.3909,-0.8036 0.7836,-1.6073 1.1885,-2.4113 -2.0825,4.5131 -0.7577,1.5149 -0.1926,0.5565 1.4575,-2.9363 2.9562,-5.8728 4.5226,-8.7785 6.0999,-11.3132 12.912,-22.3793 20.402,-33.0744 7.6669,-10.9423 16.0404,-21.4829 24.961,-31.7141 2.1788,-2.473 -2.1709,2.4418 -0.6811,0.7726 0.5399,-0.5872 1.0377,-1.1744 1.5777,-1.7308 1.0297,-1.1438 2.0993,-2.2875 3.1345,-3.4002 2.5327,-2.7202 5.1328,-5.4094 7.7405,-8.0677 4.5977,-4.6366 9.3064,-9.1804 14.1898,-13.6316 10.1641,-9.2732 20.904,-18.0826 32.1321,-26.3978 2.5709,-1.8853 5.1372,-3.74 7.7351,-5.5638 1.5746,-1.1127 3.1412,-2.1945 4.714,-3.2765 0.5318,-0.3708 1.0657,-0.711 1.6017,-1.082 2.4978,-1.6691 -3.6023,2.3803 0.3286,-0.1853 5.7337,-3.7708 11.5822,-7.4185 17.5384,-10.9424 12.0193,-7.0784 24.5001,-13.6005 37.3367,-19.5044 6.4903,-2.9983 13.0875,-5.8111 19.7558,-8.4696 3.031,-1.2055 6.0984,-2.38 9.1295,-3.5237 3.4634,-1.2983 -4.0927,1.4528 -0.6411,0.2155 0.6411,-0.2155 1.2485,-0.4325 1.8583,-0.649 2.0284,-0.7108 4.029,-1.4219 6.0585,-2.1018 13.5185,-4.5748 27.3177,-8.4696 41.3686,-11.6225 7.0947,-1.5765 14.2668,-2.9982 21.4687,-4.2039 3.2834,-0.5562 6.5984,-1.0819 9.8798,-1.5455 1.6733,-0.2472 3.3168,-0.4637 4.9534,-0.6799 1.0023,-0.1237 1.9975,-0.2474 2.9986,-0.371 3.5648,-0.4636 -4.7434,0.5255 -0.3225,0.031 28.5319,-3.1529 57.4879,-3.091 86.0198,0.029 0.7841,0.093 1.6017,0.1855 2.4197,0.2783 -5.8795,-0.6183 -2.137,-0.2475 -0.889,-0.093 1.6433,0.1854 3.2805,0.4017 4.9219,0.6181 3.5666,0.4947 7.1346,1.051 10.7344,1.6382 7.131,1.1437 14.2255,2.5038 21.2529,4.0495 13.9455,3.0291 27.6779,6.7693 41.1167,11.1894 3.2452,1.0512 6.4901,2.1639 9.6975,3.3075 0.9333,0.3401 1.8247,0.68 2.7512,0.9892 -0.1392,-0.062 -4.2776,-1.5764 -1.5704,-0.5563 1.8239,0.6799 3.6346,1.3599 5.4199,2.0709 6.6349,2.5657 13.1943,5.2857 19.6474,8.1911 12.8751,5.8114 25.3958,12.2407 37.414,19.2883 5.7382,3.3692 11.3007,6.893 16.8341,10.5095 2.958,1.9166 -3.4273,-2.3491 -0.5375,-0.3708 0.6793,0.4327 1.3174,0.8655 1.9599,1.3292 1.4291,0.9582 2.8151,1.9473 4.2032,2.9363 2.8204,1.9785 5.6052,3.9876 8.3127,6.0586 10.913,8.1913 21.2575,16.9699 30.9235,26.2432 4.5986,4.4511 9.0575,8.9949 13.3345,13.6623 0.6092,0.6492 1.2097,1.3291 1.8195,2.0092 2.2818,2.5038 -2.6396,-3.0293 -0.4296,-0.4945 0.9975,1.1438 1.9986,2.2875 2.9761,3.4309 2.1264,2.5038 4.2283,5.0387 6.2622,7.604 8.2007,10.3243 15.5839,21.0812 22.0745,32.2707 3.1381,5.3477 6.0289,10.8188 8.735,16.3519 1.6414,3.3383 6.9953,6.2747 10.8074,7.2019 4.3458,1.0202 10.0933,0.5565 13.9581,-1.5763 3.8707,-2.1637 7.2584,-5.3785 8.3333,-9.3968 1.1403,-4.3893 0.1392,-7.9749 -1.8591,-12.0859 -23.8541,-48.8697 -64.1181,-90.2591 -112.5846,-122.2824 -47.3922,-31.3123 -104.0965,-53.0425 -162.6879,-62.4392 -60.7657,-9.7369 -123.2759,-6.5531 -182.0546,10.1696 -58.9796,16.7845 -112.9724,45.5002 -157.8653,82.5928 -44.9068,37.0619 -80.1403,82.3768 -102.9279,132.3282 -2.7138,5.9657 -5.205,11.9933 -7.5272,18.0519 -2.9937,7.8204 3.4634,17.4952 12.6641,19.3191 9.9497,1.9782 19.082,-2.6275 22.253,-10.9732"
         style="fill:#566f3e;fill-opacity:1;fill-rule:nonzero;stroke:none;stroke-width:0.332003" />
      <path
         id="path240"
         d="m 2517.9307,1535.8119 c 7.7634,0 7.7634,-10.4476 0,-10.4476 -7.7746,0 -7.7746,10.4476 0,10.4476"
         style="fill:#566f3e;fill-opacity:1;fill-rule:nonzero;stroke:none;stroke-width:0.332003" />
      <path
         id="path241"
         d="m 1919.2797,597.61415 c 26.1722,56.87552 54.0964,113.16366 83.6587,168.77163 37.622,70.7855 78.9551,141.75608 141.7199,197.58057 69.0432,61.41915 159.6929,100.67575 250.0965,135.51185 -231.4809,-68.0031 -478.3316,-96.5954 -722.2916,-83.5821 215.5027,91.2481 463.6018,103.4267 703.3889,98.0793 -97.5349,70.0433 -161.6502,173.9956 -174.6672,283.1715 1.7082,-14.2187 67.04,-57.4008 80.3059,-70.6304 25.9277,-25.8721 49.9654,-53.1664 71.8985,-81.6658 41.9694,-54.619 65.616,-116.0074 101.9202,-171.8627 72.1408,155.0474 311.9327,260.0198 490.8823,296.0923 -139.0783,-122.684 -302.1255,-224.8742 -480.0425,-301.0071 233.586,91.1862 503.5093,135.5428 747.0085,66.6122 -222.5703,-79.9039 -471.1267,-78.9147 -712.0214,-76.6892 252.9439,-23.121 492.8421,-139.15945 648.3266,-313.64945 -216.8556,86.45674 -434.4337,173.28449 -636.0254,284.09905 185.9754,-163.05329 376.758,-334.8544 460.427,-552.34105 -166.2192,159.34393 -372.5574,295.6595 -489.6324,482.48313 105.4115,-199.4659 138.8986,-427.21507 93.2874,-643.09443 -85.6618,229.97459 -171.3874,467.49138 -148.9173,708.37755 -34.4912,-110.99991 -38.6961,-227.37814 -66.6922,-339.73824 -27.9925,-112.32882 -85.9764,-226.60519 -197.2439,-289.10628 43.188,109.02128 61.8375,223.94706 91.651,336.27588 29.8136,112.32899 72.6767,225.2146 156.1969,314.88614 -110.4061,-41.9147 -199.3162,-117.49099 -274.8457,-198.87876 -75.5326,-81.41836 -140.3288,-170.1318 -218.3887,-249.69559"
         style="fill:#433e6e;fill-opacity:1;fill-rule:nonzero;stroke:none;stroke-width:0.332003" />
      <path
         id="path242"
         d="m 2012.1042,875.25292 c 127.1381,-148.67979 200.1321,-331.57759 206.1584,-516.54648 -81.0579,55.57704 -120.6724,144.75412 -144.8537,231.86009 -24.2161,87.07506 -37.0919,177.64306 -80.6702,258.87617 48.7869,-198.78608 40.6196,-407.89604 -23.5803,-603.37458 -51.5562,192.51109 28.9651,393.15174 15.2368,590.45392 -37.5521,-165.89697 -98.3507,-327.83767 -180.6266,-481.09203 -22.6103,-42.16215 -47.612,-84.57141 -86.6241,-116.44026 -2.7814,47.84959 16.6541,94.33901 36.1972,139.15946 35.0937,80.33658 71.5746,160.24046 108.0564,240.11322 14.5146,31.80699 29.0638,63.64491 43.5795,95.45173 -51.2143,-89.26953 -119.4701,-171.95544 -189.329,-251.70464 -63.4437,-72.45431 -128.8547,-143.64141 -196.0707,-213.49928 12.4136,71.00151 49.8574,136.77939 90.7987,199.18769 37.8009,57.55534 79.0268,113.41094 123.4584,167.28807 -39.8309,-37.80377 -81.5939,-74.33999 -127.5567,-108.27976 -74.7544,-55.17544 -155.2757,-104.57063 -241.4708,-145.40336 -8.8097,-7.04762 -17.618,-14.09524 -26.4628,-21.14285 50.749,76.93658 112.1938,148.33988 180.5913,214.11758 60.5933,58.26627 127.7079,108.15603 196.3175,156.46927 -73.4956,-44.57299 -150.0985,-85.28217 -229.3074,-121.78763 -73.137,-33.75435 -150.0225,-64.32491 -232.2588,-73.07261 82.4553,56.28815 166.3965,110.9379 251.7302,163.88774 93.975,58.23551 191.2246,115.04933 295.6425,156.90215 -37.0924,-11.68422 -74.2173,-23.36844 -111.3016,-35.05266 -93.1534,-29.36488 -186.3344,-58.69916 -279.9804,-86.82776 -52.2091,-15.70235 -106.3776,-31.18869 -161.479,-27.44844 37.8396,32.9197 87.446,53.38256 136.6915,71.77431 179.0933,66.92152 367.5674,115.01806 559.9231,142.89954 -227.1264,17.46447 -460.7842,-46.61315 -681.3866,3.49297 227.2752,50.10594 468.6684,51.24958 696.5473,3.36923 -92.4347,40.06011 -196.533,53.75357 -296.2786,77.18354 -99.7554,23.43034 -201.4871,60.27574 -263.3246,132.08114 213.1531,-10.448 422.055,-78.884 589.9027,-193.22208 -113.2498,91.24798 -230.9734,188.43078 -277.6127,316.21518 117.1475,-79.7801 195.8902,-193.4693 271.9907,-304.53113 -13.7309,80.05833 -8.9846,162.40423 13.803,240.88623 -4.3885,-15.0844 27.9562,-67.2305 31.735,-86.1168 5.9919,-29.7978 7.3143,-60.3065 4.1397,-90.4443 -3.8164,-36.25821 -13.4107,-72.73274 -31.2385,-105.52871 31.3812,9.11855 64.7258,14.06413 97.813,15.85702 34.8483,1.8855 69.9807,-0.0928 104.2043,-6.12017 21.6516,-3.80211 80.8878,-33.32181 98.3957,-29.95242 -91.1162,-17.52632 -186.2654,-19.28828 -278.1615,-5.13135 125.8826,-69.08507 254.7648,-140.51929 343.4947,-244.28618 -146.0376,44.04766 -254.771,148.77259 -356.833,249.47923"
         style="fill:#503e6f;fill-opacity:1;fill-rule:nonzero;stroke:none;stroke-width:0.332003" />
      <path
         id="path243"
         d="m 1591.8313,1297.0279 c -72.5371,-174.0575 -207.9093,-327.99223 -382.3319,-434.69547 8.5607,89.2697 72.3592,167.22607 142.6488,232.91117 70.2944,65.6541 150.2071,125.0641 204.1635,201.475 -164.0456,-145.2487 -369.5274,-255.074 -592.87921,-316.89523 156.45201,143.76523 393.81271,196.68413 575.79601,315.75153 -180.2006,-64.6648 -369.4188,-110.3814 -562.2418,-135.821 -52.99508,-7.0167 -107.59128,-12.4261 -159.79907,-1.8855 44.43187,28.4685 99.8493,40.1837 153.73806,50.8478 96.60461,19.1646 193.57301,37.031 290.53031,54.8973 38.5922,7.1094 77.2129,14.2189 115.8345,21.3592 -114.1185,-12.426 -231.3721,-8.9023 -346.6343,-2.6276 -104.77334,5.7186 -209.36721,13.539 -313.68265,23.4303 75.10652,30.3233 159.01906,39.6892 241.65026,44.666 76.24069,4.5745 152.73829,5.7181 229.08619,3.4618 -58.3784,7.8203 -116.611,17.7425 -174.6337,32.1469 -94.36178,23.4611 -186.4405,54.248 -273.38282,93.8445 -11.62851,2.4729 -23.28758,4.9457 -34.91335,7.4184 101.98802,5.9661 204.59091,1.113 305.65897,-11.8696 89.5425,-11.4986 174.6351,-32.3323 259.0202,-55.1753 -83.5293,28.4378 -165.0181,61.2028 -243.9357,98.1721 -72.89604,34.1252 -144.86393,72.7324 -198.74631,127.2587 99.71028,-28.3759 198.67401,-58.7301 296.77711,-91.0625 107.9511,-35.5781 216.3956,-74.4017 314.3938,-126.5788 -31.77,20.3082 -63.5511,40.6164 -95.2834,60.9247 -79.7806,51.0335 -159.5054,102.036 -238.4033,154.0893 -43.9693,29.0249 -88.8325,59.5645 -115.7212,101.4177 52.5614,-9.1189 99.7106,-33.6308 144.6101,-58.9774 163.4388,-92.2681 313.9646,-201.7226 447.1952,-325.1794 -108.9075,173.6557 -299.8056,306.8801 -373.7001,493.8584 173.8912,-136.3468 308.572,-309.9714 388.6808,-500.9987 -12.662,88.8989 -57.0951,171.6464 -89.8002,256.6195 -32.6645,84.9733 -53.5602,178.8178 -18.7916,263.1726 107.9119,-159.6529 157.7683,-348.3312 140.7954,-532.7745 24.996,132.2663 53.2412,271.024 150.242,375.4089 -11.8796,-128.7425 -77.5293,-248.4901 -142.1576,-364.8991 69.3357,54.2169 151.1072,96.379 239.1184,123.364 -16.9379,-5.1931 -49.1042,-57.432 -65.1535,-70.5999 -25.3566,-20.8028 -53.9537,-38.6381 -84.6611,-53.0116 -36.9448,-17.3099 -77.313,-30.5705 -118.6674,-35.8563 26.1162,-17.619 49.308,-38.9473 69.3479,-61.8521 21.1141,-24.0792 38.6212,-50.5696 51.7803,-78.6054 8.3476,-17.7428 12.7321,-76.8438 25.6776,-87.6315 -67.2929,56.1027 -121.6054,123.8278 -158.8728,198.0132 3.2799,-129.1445 5.9907,-261.7198 -44.6463,-383.19847 -38.515,129.82437 1.9583,266.26377 42.2939,395.68637"
         style="fill:#634489;fill-opacity:1;fill-rule:nonzero;stroke:none;stroke-width:0.332003" />
      <path
         id="path244"
         d="m 2842.0606,981.98709 c 174.5971,106.48711 387.359,165.24791 600.8646,165.89701 -66.1247,-68.8376 -169.9648,-100.9847 -270.9944,-119.8094 -101.0693,-18.8244 -205.8373,-27.7575 -300.5934,-63.52115 230.4854,37.40195 471.4862,25.16133 695.369,-35.23808 -223.3128,-39.96732 -452.7619,34.71275 -680.6416,27.6959 190.4017,-36.62902 375.6648,-93.28801 550.4407,-168.33892 48.0356,-20.61735 96.3232,-43.33672 132.1293,-77.92557 -55.2376,-1.23644 -108.3764,16.72278 -159.5894,34.77427 -91.792,32.39453 -183.0531,65.9633 -274.2728,99.53223 -36.3423,13.38431 -72.6796,26.73768 -109.0203,40.12181 101.7079,-46.58222 195.3925,-107.75425 285.6527,-170.22442 81.985,-56.78289 162.5103,-115.17272 241.3943,-175.20128 -81.5626,12.51888 -156.5144,46.58239 -227.4886,83.61319 -65.475,34.15614 -128.878,71.2488 -189.9331,111.0618 42.6532,-35.42352 83.7714,-72.51617 121.7812,-113.16384 61.7694,-66.14854 116.7957,-137.11912 161.7688,-212.81927 7.9134,-7.78948 15.7955,-15.60972 23.7114,-23.42997 -87.4784,45.84019 -168.3199,100.8302 -242.4982,161.72401 -65.7231,53.93882 -121.6436,113.31815 -175.6331,173.96485 49.6014,-64.78873 94.6453,-132.17389 134.8338,-201.6915 37.0912,-64.20152 70.4697,-131.58634 78.5655,-203.05167 -62.9376,72.82515 -123.8911,146.88709 -182.8397,222.15435 -64.8698,82.84023 -127.9894,168.5551 -173.7074,260.05057 12.5542,-32.45606 25.1503,-64.88135 37.6933,-97.3374 31.5612,-81.41854 63.1247,-162.86783 93.2459,-244.71907 16.8416,-45.65494 33.3896,-92.94809 27.7212,-140.61209 -37.0543,33.5997 -59.4145,77.12184 -79.4576,120.2111 -72.7783,156.84046 -123.6033,321.3154 -151.0259,488.6961 -25.7117,-196.37473 42.4329,-400.41555 -20.7919,-590.33002 -52.1725,198.1676 -47.5713,407.37036 13.2297,603.65262 -48.4203,-79.13107 -66.8283,-168.98798 -96.2859,-254.85769 -29.4923,-85.83861 -74.4965,-173.09925 -158.8067,-224.90545 17.3015,184.44339 101.3556,363.75577 237.3371,506.40803 -108.0227,-95.88462 -222.9965,-195.50931 -371.5249,-232.78757 94.932,99.563 227.9837,165.00063 357.9379,228.21282 -92.6533,-9.92227 -187.5491,-3.83287 -277.4941,17.86642 17.3043,-4.17296 78.2153,22.59549 100.1133,25.40839 34.516,4.4201 69.7506,4.8221 104.4116,1.3291 41.7257,-4.2037 83.5513,-13.41522 120.9258,-29.67418 -9.7697,27.44858 -14.6153,56.44278 -15.8639,85.15868 -1.3204,30.2306 1.8536,60.6465 9.6307,90.1353 4.9197,18.7009 40.411,69.2705 36.9457,84.5404 17.9692,-79.4092 17.6857,-161.8788 -0.9287,-241.16441 82.7692,107.38341 168.3216,217.33241 290.1775,291.64121 -54.3476,-125.466 -177.8445,-217.1158 -296.4894,-303.04721"
         style="fill:#7b3fad;fill-opacity:1;fill-rule:nonzero;stroke:none;stroke-width:0.332003" />
      <path
         id="path245"
         d="m 3941.1897,1408.6765 c -66.8994,-19.7206 -134.374,-37.9271 -202.3498,-54.5878 -86.5437,-21.2355 -175.6275,-40.122 -265.3533,-35.0834 -98.7123,5.5948 -192.0743,39.7819 -281.3704,76.6889 210.1198,-108.3104 395.559,-252.3228 542.7303,-421.46549 -220.0655,82.62389 -391.9868,238.16589 -543.1599,399.58069 1.9985,-109.7633 -47.4979,-219.5575 -134.7278,-299.0905 11.338,10.3551 6.7369,81.4494 9.7353,98.7903 5.8163,33.9087 14.1194,67.4467 24.8541,100.4285 20.5792,63.1503 59.0639,118.6347 84.4125,178.8484 -182.8031,-53.2589 -430.7201,36.4743 -578.6095,130.9063 197.9222,-11.9008 393.5251,-52.8263 575.8968,-120.5823 -231.7271,94.6174 -446.0889,243.5754 -543.9443,448.7906 214.7525,-94.6481 375.4457,-259.0615 530.0729,-419.1781 -144.1761,181.6613 -198.3489,415.098 -146.3901,630.9155 65.1184,-199.033 130.4142,-398.808 164.2956,-603.5906 22.0713,228.4601 48.6803,465.8224 185.0142,662.2899 -31.7048,-213.0666 -17.084,-437.601 -104.8142,-636.1705 106.3792,199.095 284.2961,369.1959 503.2267,479.4537 -145.9662,-205.8951 -298.488,-416.7363 -524.2643,-558.492 119.717,49.395 224.4887,122.3131 341.1763,176.8702 116.6863,54.5883 254.5904,90.6297 381.722,57.9573 -123.6472,-42.3783 -236.5809,-104.8175 -354.4433,-158.1693 -117.86,-53.3517 -244.6744,-98.4812 -377.587,-101.7577 108.4825,-45.5004 232.5522,-54.9591 353.0192,-51.8062 120.4638,3.184 240.3596,18.1446 360.858,18.4536"
         style="fill:#4d3e6f;fill-opacity:1;fill-rule:nonzero;stroke:none;stroke-width:0.332003" />
      <path
         id="path246"
         d="m 2029.6848,1426.2029 c 47.7528,-48.375 128.1681,-4.4201 138.4761,75.7001 0.5705,-40.8638 1.1477,-81.7584 1.6734,-122.6532 60.7343,-9.0257 121.4638,-18.0208 182.1963,-27.0466 3.2462,53.8769 6.491,107.754 9.7367,161.6311 6.0361,-40.1217 13.8722,-84.1076 38.3023,-107.6923 23.1101,-22.2863 53.9528,-19.4428 82.0553,-15.7025 1.6765,45.5002 3.317,91.0007 4.9598,136.5011 38.0146,-66.2723 85.0185,-134.5228 146.3536,-141.8794 38.2995,-4.575 77.8527,17.7117 102.6704,57.9261 -87.7638,85.6841 -114.225,245.2139 -134.1953,390.2462 -71.8931,-6.2129 -143.8933,-10.0769 -215.9292,-11.6225 -66.5123,-1.4219 -155.5582,23.2139 -219.5381,2.3493 -51.1378,-16.6609 -49.2051,-85.8078 -63.6171,-148.8964 -4.8534,-21.2047 -72.5732,-249.4482 -73.1442,-248.861"
         style="fill:#252c51;fill-opacity:1;fill-rule:nonzero;stroke:none;stroke-width:0.332003" />
      <path
         id="path247"
         d="m 2019.2728,1742.3254 c 35.4478,-29.0251 74.7826,-49.0861 115.4707,-58.8537 14.9461,36.6291 25.213,76.782 30.245,118.1712 11.6221,-4.1111 23.2492,-8.2224 34.8748,-12.3026 -4.8496,-74.3398 -15.1202,-148.0307 -30.5901,-219.5887 54.3408,-14.868 109.3683,-25.192 164.6444,-30.8796 11.5518,87.7241 23.1415,175.4483 34.6957,263.1726 18.6547,-60.6156 33.3787,-123.5186 43.9722,-187.689 37.1584,5.4403 73.9252,15.6408 109.6942,30.3851 0.2886,48.6843 0.5723,97.3991 0.8575,146.1145 24.07,-28.9942 48.8561,-58.5758 78.8146,-74.3092 29.9164,-15.7026 66.6125,-14.8989 91.1501,13.4152 -39.6608,120.2729 -69.1493,246.7899 -87.6576,376.2744 -1.3524,9.4276 -2.96,19.628 -8.3819,25.7484 -4.9912,5.6567 -12.0156,6.3369 -18.5066,6.3369 -61.8062,0.093 -120.0723,-35.98 -179.8112,-57.7411 -60.5859,-22.1009 -123.4196,-29.5505 -185.9018,-36.938 -46.9267,-5.5331 -105.449,6.7075 -134.6525,-50.0753 -9.3134,-18.1136 -62.0199,-248.7064 -58.9175,-251.2411"
         style="fill:#2d3866;fill-opacity:1;fill-rule:nonzero;stroke:none;stroke-width:0.332003" />
      <path
         id="path248"
         d="m 2071.9803,1909.7989 c 12.483,-2.8748 25.2503,-5.7183 37.6931,-2.5038 39.5147,10.2316 56.9889,72.7635 67.4723,125.9296 0.3962,-40.9874 0.7859,-81.9748 1.179,-122.9622 57.8785,-10.4169 115.7584,-20.8337 173.5983,-31.2814 0.8562,45.8403 5.3888,91.5262 13.5181,136.0066 13.8423,-46.1188 25.6739,-93.3809 35.3397,-141.4777 27.0316,6.5219 54.7074,8.2531 82.0616,5.1309 0.351,53.6918 0.7113,107.4144 1.0675,161.1369 41.7208,-106.9196 163.0803,-132.7299 226.5587,-48.1895 -73.9606,117.4909 -98.7107,276.3715 -135.55,423.0111 -3.1377,12.6116 -6.9262,26.0577 -15.0197,33.4454 -7.837,7.1403 -18.0055,6.9548 -27.4174,6.522 -88.1948,-4.142 -176.3487,-8.315 -264.5414,-12.4569 -62.6206,-2.9365 -149.7444,5.8729 -192.7877,-71.9289 -26.8514,-48.4987 -17.9703,-112.6382 -21.3702,-169.359 -6.0509,-101.7267 -42.7492,-178.0449 -71.9894,-268.5203 28.9927,-10.9114 60.1967,-15.6715 90.1875,-22.5028"
         style="fill:#374d7f;fill-opacity:1;fill-rule:nonzero;stroke:none;stroke-width:0.332003" />
      <path
         id="path249"
         d="m 2638.6443,2484.7665 h -2.2074 c 0.3926,1.5454 1.0688,-0.1547 2.2074,0"
         style="fill:#95693f;fill-opacity:1;fill-rule:nonzero;stroke:none;stroke-width:0.332003" />
      <path
         id="path250"
         d="m 2638.7516,2484.7665 h -0.083 c 1.5341,0.1856 1.428,-1.1127 0.083,0"
         style="fill:#95693f;fill-opacity:1;fill-rule:nonzero;stroke:none;stroke-width:0.332003" />
      <path
         id="path251"
         d="m 2636.2542,2484.7665 h 0.1391 -0.1391"
         style="fill:#95693f;fill-opacity:1;fill-rule:nonzero;stroke:none;stroke-width:0.332003" />
      <path
         id="path252"
         d="m 2690.9957,2228.3941 c -18.2204,-15.8262 -36.4463,-31.6214 -54.6714,-47.4167 -6.5595,-5.6876 -13.3006,-11.4988 -20.9304,-13.7554 -5.9211,-1.7618 -12.0905,-1.2982 -18.1203,-0.093 -30.4164,5.9967 -57.8389,29.6125 -79.7002,59.2556 -21.8592,29.6432 -38.8373,65.1903 -55.63,100.4595 6.4184,-62.5322 25.4614,-122.5604 54.5299,-171.6155 -23.005,-15.4862 -46.793,-28.8088 -71.1506,-39.8129 -7.0958,-3.2146 -14.3721,-6.244 -21.8255,-6.2748 -9.8448,-0.031 -19.2964,5.131 -28.0663,11.1897 -57.8423,39.72 -96.7492,116.9656 -126.6669,195.5093 2.9561,-42.904 3.3163,-86.117 1.0689,-129.0825 -37.6961,0.1237 -75.4251,0.2472 -113.1564,0.3708 -0.1092,37.6183 -1.1383,75.2674 -2.9961,112.8238 -25.8573,-51.528 -56.7001,-98.3885 -91.471,-138.9434 -3.2125,-3.74 -6.6358,-7.542 -10.7684,-8.7783 -4.2823,-1.2983 -8.7043,0.4017 -12.9106,2.1018 -25.1796,10.2315 -50.0366,21.823 -74.5327,34.7127 37.6893,34.9599 52.3278,100.0883 64.3682,160.1477 8.9496,44.5727 17.9393,89.4861 20.6465,135.5737 h 587.1008 c -12.9467,-84.1695 8.6656,-198.1369 54.8825,-256.3724"
         style="fill:#3f6695;fill-opacity:1;fill-rule:nonzero;stroke:none;stroke-width:0.332003" />
      <path
         id="path253"
         d="m 2636.2542,2484.7665 h -0.1092 0.1092"
         style="fill:#95693f;fill-opacity:1;fill-rule:nonzero;stroke:none;stroke-width:0.332003" />
      <path
         id="path254"
         d="m 2274.9661,2049.7928 c 16.7636,-59.4718 31.7388,-119.3456 44.9344,-179.5285 16.7592,-76.5656 30.6341,-155.1402 16.9365,-232.1695 -15.0777,-84.7568 -62.6207,-162.3421 -112.8657,-236.1876 142.9326,171.8629 324.7719,319.3372 532.1091,431.5117 -114.3341,-182.7433 -308.224,-317.4825 -506.994,-433.7988 126.3044,-7.9751 248.1239,-60.3376 331.8568,-142.6834 -10.9123,10.7259 -93.0398,13.0134 -112.6887,17.0937 -38.4462,8.0058 -76.2834,18.1444 -113.2291,30.3233 -70.7868,23.3374 -131.1594,61.4191 -198.1351,88.6205 45.1106,-162.4968 -79.809,-368.6703 -201.3461,-488.07802 31.0983,169.88452 95.3619,335.13242 189.2551,486.65612 -129.1264,-191.7692 -319.2071,-363.7247 -563.6315,-430.15162 127.6749,177.08682 330.762,301.34732 528.3673,420.75472 -221.4242,-108.465 -494.4885,-134.6774 -737.9516,-70.8469 234.4798,38.7 469.8069,77.4928 708.1337,88.7133 -260.6158,39.1636 -531.0379,83.0257 -744.8287,218.0431 242.081,-46.1186 501.4019,-53.2589 721.8622,-146.4851 -219.415,109.3922 -399.2674,277.9477 -506.6787,476.7027 223.7385,-144.1668 452.6202,-294.4233 595.6942,-501.8329 -46.2546,107.7231 -120.8214,204.5968 -173.2456,310.1565 -52.4612,105.5597 -81.775,227.7801 -33.0234,334.6687 37.8322,-110.4744 99.6422,-213.4685 150.6011,-319.9245 50.9242,-106.4868 91.65,-219.9285 83.6947,-334.9777 61.8373,89.6407 83.6278,195.942 90.58,300.2344 6.9895,104.292 0.3239,209.11 10.5931,313.1858"
         style="fill:#663fad;fill-opacity:1;fill-rule:nonzero;stroke:none;stroke-width:0.332003" />
    </g>
  </g>
</svg>
